<?xml version="1.0" encoding="utf-8"?>
<!-- Generator: Adobe Illustrator 26.1.0, SVG Export Plug-In . SVG Version: 6.00 Build 0)  -->
<svg version="1.1" id="Layer_1" xmlns="http://www.w3.org/2000/svg" xmlns:xlink="http://www.w3.org/1999/xlink" x="0px" y="0px"
	 viewBox="0 0 127.39 109.81" style="enable-background:new 0 0 127.39 109.81;" xml:space="preserve">
<style type="text/css">
	.st0{fill:#0A96BA;}
	.st1{fill:#0B2C3C;}
	.st2{fill:#FFFFFF;}
	.st3{fill:#072F3E;}
</style>
<g id="vertical">
	<g>
		<path class="st0" d="M98.42,42.99c0,6.1-1.56,11.84-4.3,16.84c-5.96,10.86-17.5,18.23-30.77,18.23
			c-13.64,0-25.46-7.78-31.26-19.15c-2.44-4.78-3.81-10.18-3.81-15.92c0-19.37,15.7-35.07,35.07-35.07
			C82.72,7.93,98.42,23.63,98.42,42.99z"/>
		<path class="st1" d="M94.12,59.83c-5.96,10.86-17.5,18.23-30.77,18.23c-13.64,0-25.46-7.78-31.26-19.15l30.97-43.61
			c0.14-0.19,0.42-0.19,0.55,0.01C66.37,19.41,89.17,52.62,94.12,59.83z"/>
		<path class="st2" d="M59.57,24.36c-0.47,0.63-0.91,1.27-1.36,1.91c-0.07,0.1-0.13,0.19-0.2,0.29c-0.6,0.86-1.2,1.73-1.79,2.59
			c-0.72,1.05-1.44,2.09-2.15,3.14c-0.8,1.18-1.61,2.35-2.41,3.53c-0.85,1.25-1.7,2.5-2.55,3.76c-0.86,1.27-1.73,2.55-2.59,3.82
			c-0.84,1.24-1.68,2.48-2.52,3.73c-0.78,1.16-1.56,2.31-2.34,3.47c-0.68,1.02-1.37,2.03-2.05,3.05c-0.55,0.82-1.1,1.65-1.65,2.47
			c-0.38,0.58-0.77,1.15-1.14,1.73c-0.18,0.27-0.36,0.55-0.53,0.83c-0.74,1.27,0.69,1.71,1.28,1.01c0,0,15.6-18.47,16.07-19
			c0.48-0.53,0.99-0.41,1.27,0.43c0.28,0.84,4.54,12.15,4.75,12.56c0.21,0.41,0.61,0.59,0.92-0.23c0.31-0.83,8.4-17.45,8.54-17.7
			c0.24-0.42,0.65-0.56,1.14,0.18c0.52,0.79,18,23.34,18.6,23.94c0.6,0.6,1.99-0.35,1.37-1.1c-0.08-0.09-0.14-0.19-0.21-0.29
			c-0.15-0.22-0.3-0.43-0.46-0.65c-0.23-0.32-0.45-0.65-0.67-0.98c-0.29-0.42-0.58-0.84-0.87-1.26c-0.35-0.51-0.7-1.01-1.04-1.52
			c-0.4-0.58-0.79-1.16-1.19-1.74c-0.44-0.64-0.88-1.28-1.32-1.92c-0.47-0.69-0.94-1.38-1.42-2.07c-0.5-0.73-1-1.46-1.49-2.19
			c-0.52-0.75-1.03-1.51-1.55-2.26c-0.53-0.77-1.05-1.54-1.58-2.31c-0.53-0.77-1.06-1.55-1.58-2.32c-0.52-0.76-1.04-1.53-1.57-2.29
			c-0.51-0.74-1.02-1.49-1.52-2.23c-0.49-0.71-0.97-1.43-1.46-2.14c-0.46-0.67-0.91-1.34-1.37-2.01c-0.42-0.61-0.84-1.23-1.26-1.84
			c-0.37-0.55-0.75-1.1-1.12-1.64c-0.32-0.47-0.64-0.94-0.96-1.41c-0.26-0.38-0.52-0.76-0.78-1.14c-0.49-0.72-0.98-1.45-1.54-2.12
			c-0.36-0.42-0.75-0.87-1.26-1.11c-0.6-0.28-1.25-0.08-1.79,0.25c-0.38,0.24-0.72,0.55-1.03,0.87
			C60.61,23.03,60.08,23.69,59.57,24.36z"/>
		<g>
			<g>
				<path class="st1" d="M63.36,85.99c-8.08,0-15.95-2.25-22.77-6.52c-6.63-4.14-12.01-10.01-15.55-16.96
					c-3.1-6.08-4.67-12.64-4.67-19.51c0-11.48,4.47-22.28,12.59-30.4C41.08,4.47,51.87,0,63.36,0c11.48,0,22.28,4.47,30.4,12.59
					c8.12,8.12,12.59,18.92,12.59,30.4c0,7.22-1.82,14.35-5.27,20.65C93.52,77.43,79.06,85.99,63.36,85.99z M63.36,4.13
					c-21.43,0-38.86,17.43-38.86,38.86c0,6.21,1.42,12.15,4.22,17.64c6.68,13.09,19.95,21.23,34.64,21.23
					c14.2,0,27.26-7.74,34.1-20.2c3.12-5.68,4.76-12.13,4.76-18.66C102.22,21.57,84.78,4.13,63.36,4.13z"/>
			</g>
		</g>
	</g>
	<g>
		<g>
			<path class="st0" d="M100.4,86.53c-1.41,0-2.59,1.01-2.85,2.35h-5.42c-0.21-0.5-0.71-0.84-1.28-0.84c-0.77,0-1.4,0.63-1.4,1.4
				c0,0.77,0.63,1.4,1.4,1.4c0.57,0,1.07-0.35,1.28-0.84h5.42c0.26,1.34,1.44,2.35,2.85,2.35c1.6,0,2.9-1.3,2.9-2.9
				C103.31,87.83,102.01,86.53,100.4,86.53z"/>
			<rect x="98.12" y="93.17" class="st0" width="4.29" height="16.45"/>
			<path class="st0" d="M117.69,86.53h-3.99l-9.34,23.09h4.22l1.97-5.16h10.41l2.16,5.16h4.27L117.69,86.53z M111.91,100.9
				l3.82-9.97l3.87,9.97H111.91z"/>
		</g>
		<g>
			<rect x="24.68" y="86.53" class="st3" width="3.8" height="23.09"/>
			<polygon class="st3" points="39.03,105.02 34.19,92.96 30.28,92.96 37.07,109.62 39.03,109.62 41,109.62 47.78,92.96 
				43.88,92.96 			"/>
			<path class="st3" d="M9.34,86.53L0,109.62h4.22l1.97-5.16H16.6l2.16,5.16h4.27l-9.7-23.09H9.34z M7.56,100.9l3.82-9.97l3.87,9.97
				H7.56z"/>
			<path class="st3" d="M63.37,96.93c-0.93-1.95-2.7-3.25-4.7-3.84c-1.81-0.53-3.82-0.46-5.57,0.24c-1.35,0.55-2.55,1.45-3.43,2.62
				c-0.93,1.25-1.45,2.75-1.56,4.3c-0.42,5.95,3.84,9.55,8.74,9.55s6.31-2.77,6.31-2.77l-2.02-2.36c-4.24,4.32-8.42,0.77-9.23-1.53
				c-0.08-0.22-0.14-0.47-0.19-0.74c1.5,0,4.89,0,12.58,0c0.13,0-0.11-2.64-0.15-2.88C64.02,98.64,63.76,97.75,63.37,96.93z
				 M51.74,99.95c0.36-2.13,1.66-4.25,4.53-4.25c4.48,0,4.48,4.25,4.48,4.25H51.74z"/>
			<path class="st3" d="M94.34,99.26C94.34,99.26,94.35,99.26,94.34,99.26c-0.09-0.04,0.19-6.6-5.85-6.6
				c-3.22,0-4.94,1.12-5.86,2.18v-1.98h-3.8v16.75h3.8v-9.44c0,0,0.49-4.23,3.85-4.23c3.76,0,4.06,2.39,4.06,3.32v10.35h3.8
				L94.34,99.26L94.34,99.26z"/>
			<path class="st3" d="M70.9,95.32v-2.45h-3.8v16.75h3.8v-9.16c0.07-0.16,0.05-4.23,5.4-4.23v-3.57
				C76.3,92.67,72.63,92.34,70.9,95.32z"/>
		</g>
	</g>
</g>
</svg>
